<?xml version="1.0" encoding="UTF-8" standalone="no"?>
<svg
   width="2500"
   height="747"
   viewBox="0 0 512 153"
   preserveAspectRatio="xMidYMid"
   version="1.1"
   id="svg6"
   xmlns="http://www.w3.org/2000/svg"
   xmlns:svg="http://www.w3.org/2000/svg">
  <defs
     id="defs10" />
  <path
     d="m 140.107,96.628 c -8.321,0 -16.118,-3.523 -23.202,-9.258 l 1.725,-8.096 0.075,-0.3 c 1.536,-8.62 6.409,-23.089 21.402,-23.089 11.244,0 20.39,9.146 20.39,20.39 -0.038,11.207 -9.183,20.353 -20.39,20.353 z m 0,-61.395 c -19.154,0 -33.996,12.444 -40.03,32.909 C 90.856,54.311 83.884,37.707 79.799,23.726 H 59.184 v 53.636 c 0,10.57 -8.621,19.19 -19.191,19.19 -10.57,0 -19.19,-8.62 -19.19,-19.19 V 23.726 H 0.186 v 53.636 c -0.075,21.965 17.804,39.993 39.768,39.993 21.965,0 39.844,-18.028 39.844,-39.993 v -8.995 c 4.01,8.358 8.92,16.791 14.88,24.288 l -12.632,59.37 h 21.103 l 9.145,-43.066 c 8.021,5.135 17.242,8.359 27.812,8.359 22.601,0 41.005,-18.516 41.005,-41.118 0,-22.564 -18.404,-40.967 -41.005,-40.967 z"
     fill="#6FDA44"
     id="path2"
     style="fill:#ffffff" />
  <path
     d="m 244.043,37.557 13.306,53.636 14.656,-53.636 h 17.466 l -22.526,77.512 h -17.467 l -13.83,-53.974 -13.794,53.936 H 204.388 L 181.86,37.52 h 17.467 l 14.655,53.636 13.306,-53.636 h 16.754 v 0.038 z m 87.22,-2.324 c -22.676,0 -41.042,18.403 -41.042,41.042 0,22.677 18.403,41.043 41.042,41.043 22.677,0 41.08,-18.366 41.08,-41.043 0,-22.676 -18.403,-41.042 -41.08,-41.042 z m 0,65.218 c -13.343,0 -24.138,-10.795 -24.138,-24.138 0,-13.344 10.832,-24.138 24.138,-24.138 13.344,0 24.138,10.794 24.138,24.138 0,13.306 -10.794,24.138 -24.138,24.138 z m 90.968,-45.54 c -11.731,0 -21.214,9.52 -21.214,21.214 v 38.906 h -17.58 V 37.557 h 17.58 v 11.919 c 0,0 7.496,-11.957 22.901,-11.957 h 5.397 v 17.392 z m 58.997,18.366 C 493.708,66.23 502.18,52.849 502.18,37.519 H 484.6 c 0,12.931 -10.494,23.426 -23.425,23.426 h -2.362 V 0.15 h -17.578 v 114.88 h 17.578 V 78.524 h 2.1 c 1.724,0 3.973,1.125 4.985,2.511 l 24.962,33.996 h 21.065 z"
     id="path4"
     style="fill:#ffffff" />
</svg>
